<svg xmlns="http://www.w3.org/2000/svg" viewBox="0 0 32 32" fill="none">
  <defs>
    <linearGradient id="faviconGrad" x1="0%" y1="0%" x2="100%" y2="100%">
      <stop offset="0%" style="stop-color:#3b82f6;stop-opacity:1" />
      <stop offset="100%" style="stop-color:#1d4ed8;stop-opacity:1" />
    </linearGradient>
  </defs>
  
  <!-- Background -->
  <rect width="32" height="32" rx="6" fill="url(#faviconGrad)"/>
  
  <!-- BR letters -->
  <g transform="translate(4, 6)">
    <!-- B -->
    <path d="M0 2 L0 18 L8 18 Q10 18 10 16 Q10 14 8 14 Q10 14 10 12 Q10 10 8 10 L0 10 Z M2 4 L8 4 Q8 6 6 6 L2 6 Z M2 8 L8 8 Q8 10 6 10 L2 10 Z" fill="white"/>
    
    <!-- R -->
    <path d="M12 2 L12 18 L14 18 L14 12 L16 12 L18 18 L20 18 L18 12 Q20 12 20 10 Q20 8 18 8 L12 8 Z M14 4 L18 4 Q18 6 16 6 L14 6 Z" fill="white"/>
  </g>
  
  <!-- Tech dots -->
  <g transform="translate(6, 22)">
    <circle cx="2" cy="2" r="1.5" fill="white" opacity="0.8"/>
    <circle cx="8" cy="2" r="1" fill="white" opacity="0.6"/>
    <circle cx="14" cy="2" r="1.5" fill="white" opacity="0.8"/>
    <circle cx="20" cy="2" r="1" fill="white" opacity="0.6"/>
  </g>
</svg>