<svg xmlns="http://www.w3.org/2000/svg" viewBox="0 0 200 60" fill="none">
  <defs>
    <linearGradient id="logoGrad" x1="0%" y1="0%" x2="100%" y2="100%">
      <stop offset="0%" style="stop-color:#3b82f6;stop-opacity:1" />
      <stop offset="100%" style="stop-color:#1d4ed8;stop-opacity:1" />
    </linearGradient>
  </defs>
  
  <!-- BR letters -->
  <g transform="translate(10, 10)">
    <!-- B -->
    <path d="M0 5 L0 35 L15 35 Q20 35 20 30 Q20 25 15 25 Q20 25 20 20 Q20 15 15 15 L0 15 Z M5 10 L15 10 Q15 15 10 15 L5 15 Z M5 20 L15 20 Q15 25 10 25 L5 25 Z" fill="url(#logoGrad)"/>
    
    <!-- R -->
    <path d="M25 5 L25 35 L30 35 L30 25 L35 25 L40 35 L45 35 L40 25 Q45 25 45 20 Q45 15 40 15 L25 15 Z M30 10 L40 10 Q40 15 35 15 L30 15 Z" fill="url(#logoGrad)"/>
  </g>
  
  <!-- TECH text -->
  <g transform="translate(70, 15)">
    <text x="0" y="20" font-family="Arial, sans-serif" font-size="24" font-weight="bold" fill="#1f2937">TECH</text>
  </g>
  
  <!-- Tagline -->
  <g transform="translate(70, 35)">
    <text x="0" y="15" font-family="Arial, sans-serif" font-size="10" fill="#6b7280">AI Marketing Solutions</text>
  </g>
  
  <!-- Tech accent -->
  <g transform="translate(160, 20)">
    <circle cx="5" cy="5" r="3" fill="url(#logoGrad)" opacity="0.8"/>
    <circle cx="15" cy="5" r="2" fill="url(#logoGrad)" opacity="0.6"/>
    <circle cx="5" cy="15" r="2" fill="url(#logoGrad)" opacity="0.6"/>
    <circle cx="15" cy="15" r="3" fill="url(#logoGrad)" opacity="0.8"/>
    <line x1="5" y1="5" x2="15" y2="15" stroke="url(#logoGrad)" stroke-width="1" opacity="0.5"/>
    <line x1="15" y1="5" x2="5" y2="15" stroke="url(#logoGrad)" stroke-width="1" opacity="0.5"/>
  </g>
</svg>